# xmcd CD database file
#
# Track frame offsets:
#	150
#	17433
#	35515
#	56828
#	74238
#	91668
#	106483
#	124590
#	141228
#	156075
#
# Disc length: 2334 seconds
#
# Revision: 0
# Processed by: cddbd v1.5PL3 Copyright (c) Steve Scherf et al.
# Submitted via: CDex 1.50
#
DISCID=87091c0a
DTITLE=白石まるみ - 風のスクリーン
DYEAR=1982
DGENRE=JPop
TTITLE0=六月のまばたき
TTITLE1=YoKoSuKa愛の色
TTITLE2=レイニー・ガール
TTITLE3=A Little Fall
TTITLE4=8月生まれSummer Girl
TTITLE5=オリオン座のむこう
TTITLE6=End of Love
TTITLE7=恋人がいても
TTITLE8=九月の印象
TTITLE9=ときめきシュガー・タウン
EXTD=YEAR: 1982/07/21
EXTT0=
EXTT1=
EXTT2=
EXTT3=
EXTT4=
EXTT5=
EXTT6=
EXTT7=
EXTT8=
EXTT9=
PLAYORDER=
